<?xml version="1.0" standalone="no"?><!DOCTYPE svg PUBLIC "-//W3C//DTD SVG 1.1//EN" "http://www.w3.org/Graphics/SVG/1.1/DTD/svg11.dtd"><svg t="1603918399163" class="icon" viewBox="0 0 1024 1024" version="1.1" xmlns="http://www.w3.org/2000/svg" p-id="10267" xmlns:xlink="http://www.w3.org/1999/xlink" width="100" height="100"><defs><style type="text/css">@font-face { font-weight: 400; font-style: normal; font-family: Inter-Loom; src: url("https://cdn.loom.com/assets/fonts/inter/Inter-UI-Regular.woff2") format("woff2"); }
@font-face { font-weight: 400; font-style: italic; font-family: Inter-Loom; src: url("https://cdn.loom.com/assets/fonts/inter/Inter-UI-Italic.woff2") format("woff2"); }
@font-face { font-weight: 500; font-style: normal; font-family: Inter-Loom; src: url("https://cdn.loom.com/assets/fonts/inter/Inter-UI-Medium.woff2") format("woff2"); }
@font-face { font-weight: 500; font-style: italic; font-family: Inter-Loom; src: url("https://cdn.loom.com/assets/fonts/inter/Inter-UI-MediumItalic.woff2") format("woff2"); }
@font-face { font-weight: 700; font-style: normal; font-family: Inter-Loom; src: url("https://cdn.loom.com/assets/fonts/inter/Inter-UI-Bold.woff2") format("woff2"); }
@font-face { font-weight: 700; font-style: italic; font-family: Inter-Loom; src: url("https://cdn.loom.com/assets/fonts/inter/Inter-UI-BoldItalic.woff2") format("woff2"); }
@font-face { font-weight: 900; font-style: normal; font-family: Inter-Loom; src: url("https://cdn.loom.com/assets/fonts/inter/Inter-UI-Black.woff2") format("woff2"); }
@font-face { font-weight: 900; font-style: italic; font-family: Inter-Loom; src: url("https://cdn.loom.com/assets/fonts/inter/Inter-UI-BlackItalic.woff2") format("woff2"); }
</style></defs><path d="M823.18 343.36c-15.44-31.72-42.22-67.09-75.42-99.59s-69.12-58.54-101.17-73.3c-46.72-21.53-69.78-12.51-80.9-1.15-11.12 11.36-19.65 34.61 2.86 80.86 15.44 31.72 42.22 67.09 75.42 99.59s69.12 58.54 101.17 73.3c20.7 9.54 36.75 13.08 49.18 13.08 15.63 0 25.53-5.6 31.72-11.93 11.12-11.36 19.65-34.61-2.86-80.86z m-17.39 61.03c-7.18 7.34-29.68 1.74-48.79-7.07-29.16-13.44-62.26-37.52-93.2-67.81-30.93-30.29-55.71-62.87-69.76-91.74-9.21-18.92-15.28-41.29-8.1-48.62 2.32-2.37 6.23-3.39 11.11-3.39 10.24 0 24.73 4.49 37.67 10.46 29.16 13.44 62.26 37.52 93.2 67.81 30.93 30.29 55.71 62.87 69.76 91.74 9.22 18.91 15.29 41.28 8.11 48.62z" p-id="10268" fill="#999999"></path><path d="M752.84 458.46L508 708.53c-12.85 13.13-32.5 16.48-48.87 8.34-26.22-13.04-65.38-36.3-102.99-73.13-38.37-37.57-61.35-78.42-73.86-106.06-7.22-15.95-3.95-34.36 8.34-46.91L533 243.22c5.48-5.59 5.38-14.57-0.21-20.04-5.6-5.48-14.57-5.38-20.04 0.21L270.37 470.94c-20.52 20.96-25.98 51.75-13.91 78.43 13.51 29.86 38.34 73.98 79.85 114.63 40.25 39.41 82.15 64.31 110.2 78.26 10 4.97 20.71 7.38 31.33 7.38 18.52 0 36.76-7.34 50.41-21.28L773.1 478.29c5.48-5.59 5.38-14.57-0.21-20.04-5.6-5.48-14.57-5.38-20.05 0.21z" p-id="10269" fill="#999999"></path><path d="M458.97 763.24l-227.14 24.15c-4.51 0.48-8.95-1.06-12.19-4.23a15.063 15.063 0 0 1-4.49-12.1l19.34-227.6c0.66-7.8-5.12-14.66-12.92-15.32-7.81-0.68-14.66 5.12-15.32 12.92l-19.34 227.6c-1.1 12.97 3.6 25.64 12.91 34.75 8.19 8.02 19.06 12.41 30.37 12.41 1.54 0 3.09-0.08 4.64-0.25l227.14-24.15c7.78-0.83 13.42-7.81 12.6-15.59-0.83-7.78-7.82-13.41-15.6-12.59zM360.95 538.6c2.73 2.52 6.17 3.76 9.61 3.76 3.82 0 7.62-1.53 10.42-4.56l177.93-192.76c5.31-5.75 4.95-14.72-0.8-20.03-5.75-5.31-14.72-4.95-20.03 0.8L360.15 518.58c-5.31 5.75-4.95 14.71 0.8 20.02zM455.21 634.98c2.73 2.52 6.17 3.76 9.61 3.76 3.82 0 7.62-1.53 10.42-4.56l177.93-192.76c5.31-5.75 4.95-14.72-0.8-20.03-5.75-5.31-14.72-4.95-20.03 0.8L454.41 614.95c-5.31 5.76-4.95 14.72 0.8 20.03z" p-id="10270" fill="#999999"></path><path d="M235.92 744.1l23.87 23.86c2.77 2.77 6.39 4.15 10.02 4.15s7.25-1.38 10.02-4.15c5.53-5.54 5.53-14.51 0-20.04l-23.87-23.86c-5.54-5.54-14.51-5.53-20.04 0-5.53 5.53-5.53 14.51 0 20.04z" p-id="10271" fill="#999999"></path></svg>