<?xml version="1.0" standalone="no"?><!DOCTYPE svg PUBLIC "-//W3C//DTD SVG 1.1//EN" "http://www.w3.org/Graphics/SVG/1.1/DTD/svg11.dtd"><svg t="1603918423363" class="icon" viewBox="0 0 1024 1024" version="1.1" xmlns="http://www.w3.org/2000/svg" p-id="10702" xmlns:xlink="http://www.w3.org/1999/xlink" width="100" height="100"><defs><style type="text/css">@font-face { font-weight: 400; font-style: normal; font-family: Inter-Loom; src: url("https://cdn.loom.com/assets/fonts/inter/Inter-UI-Regular.woff2") format("woff2"); }
@font-face { font-weight: 400; font-style: italic; font-family: Inter-Loom; src: url("https://cdn.loom.com/assets/fonts/inter/Inter-UI-Italic.woff2") format("woff2"); }
@font-face { font-weight: 500; font-style: normal; font-family: Inter-Loom; src: url("https://cdn.loom.com/assets/fonts/inter/Inter-UI-Medium.woff2") format("woff2"); }
@font-face { font-weight: 500; font-style: italic; font-family: Inter-Loom; src: url("https://cdn.loom.com/assets/fonts/inter/Inter-UI-MediumItalic.woff2") format("woff2"); }
@font-face { font-weight: 700; font-style: normal; font-family: Inter-Loom; src: url("https://cdn.loom.com/assets/fonts/inter/Inter-UI-Bold.woff2") format("woff2"); }
@font-face { font-weight: 700; font-style: italic; font-family: Inter-Loom; src: url("https://cdn.loom.com/assets/fonts/inter/Inter-UI-BoldItalic.woff2") format("woff2"); }
@font-face { font-weight: 900; font-style: normal; font-family: Inter-Loom; src: url("https://cdn.loom.com/assets/fonts/inter/Inter-UI-Black.woff2") format("woff2"); }
@font-face { font-weight: 900; font-style: italic; font-family: Inter-Loom; src: url("https://cdn.loom.com/assets/fonts/inter/Inter-UI-BlackItalic.woff2") format("woff2"); }
</style></defs><path d="M816.924444 660.66963c-11.757037 0-21.333333-9.576296-21.333333-21.333334V211.531852H229.357037v427.804444c0 11.757037-9.576296 21.333333-21.333333 21.333334s-21.333333-9.576296-21.333334-21.333334V190.198519c0-11.757037 9.576296-21.333333 21.333334-21.333334h608.90074c11.757037 0 21.333333 9.576296 21.333334 21.333334v449.137777c0 11.757037-9.576296 21.333333-21.333334 21.333334zM874.666667 728.367407h-725.333334c-11.757037 0-21.333333-9.576296-21.333333-21.333333s9.576296-21.333333 21.333333-21.333333h725.333334c11.757037 0 21.333333 9.576296 21.333333 21.333333s-9.576296 21.333333-21.333333 21.333333z" p-id="10703" fill="#999999"></path><path d="M351.288889 629.665185c-11.757037 0-21.333333-9.576296-21.333333-21.333333V446.957037c0-11.757037 9.576296-21.333333 21.333333-21.333333S372.622222 435.2 372.622222 446.957037v161.28c0 11.851852-9.576296 21.428148-21.333333 21.428148zM512.474074 629.665185c-11.757037 0-21.333333-9.576296-21.333333-21.333333V285.677037c0-11.757037 9.576296-21.333333 21.333333-21.333333s21.333333 9.576296 21.333333 21.333333v322.654815c0 11.757037-9.576296 21.333333-21.333333 21.333333zM673.659259 629.665185c-11.757037 0-21.333333-9.576296-21.333333-21.333333V393.197037c0-11.757037 9.576296-21.333333 21.333333-21.333333s21.333333 9.576296 21.333334 21.333333v215.134815c0 11.757037-9.576296 21.333333-21.333334 21.333333zM351.194074 896c-3.413333 0-6.921481-0.853333-10.24-2.654815-10.334815-5.688889-14.127407-18.583704-8.533333-28.918518l91.496296-167.442963c5.688889-10.334815 18.583704-14.127407 28.918519-8.533334 10.334815 5.688889 14.127407 18.583704 8.533333 28.918519l-91.496296 167.442963c-3.792593 7.205926-11.093333 11.188148-18.678519 11.188148zM673.659259 896c-7.49037 0-14.791111-3.982222-18.678518-10.998519l-58.88-106.477037c-5.688889-10.334815-1.991111-23.324444 8.343703-29.013333s23.324444-1.991111 29.013334 8.343704l58.88 106.477037c5.688889 10.334815 1.991111 23.324444-8.343704 29.013333-3.318519 1.801481-6.826667 2.654815-10.334815 2.654815zM512 211.247407c-11.757037 0-21.333333-9.576296-21.333333-21.333333v-40.580741c0-11.757037 9.576296-21.333333 21.333333-21.333333s21.333333 9.576296 21.333333 21.333333v40.580741c0 11.757037-9.576296 21.333333-21.333333 21.333333z" p-id="10704" fill="#999999"></path></svg>